HIERARCHY
ROOT Hip
{
	OFFSET 0.000000 0.000000 0.000000 
	CHANNELS 6 Xposition Yposition Zposition Xrotation Yrotation Zrotation
	JOINT LowerSpine
	{
		OFFSET 0.000000 8.345300 -5.129200 
		CHANNELS 3 Xrotation Yrotation Zrotation
		JOINT MiddleSpine
		{
			OFFSET 10.856900 0.000000 0.000000 
			CHANNELS 3 Xrotation Yrotation Zrotation
			JOINT Chest
			{
				OFFSET 15.298400 0.000000 0.000000 
				CHANNELS 3 Xrotation Yrotation Zrotation
				JOINT Neck
				{
					OFFSET 25.661800 -0.598600 0.000000 
					CHANNELS 3 Xrotation Yrotation Zrotation
					JOINT Head
					{
						OFFSET 8.882900 0.000000 0.000000 
						CHANNELS 3 Xrotation Yrotation Zrotation
						End Site
						{
							OFFSET 19.739901 0.000000 0.000000 
						}
					}
				}
				JOINT RClavicle
				{
					OFFSET 23.687799 0.000000 3.158400 
					CHANNELS 3 Xrotation Yrotation Zrotation
					JOINT RShoulder
					{
						OFFSET -15.594500 -3.948000 0.987000 
						CHANNELS 3 Xrotation Yrotation Zrotation
						JOINT RForearm
						{
							OFFSET -31.337000 0.000000 0.197400 
							CHANNELS 3 Xrotation Yrotation Zrotation
							JOINT RHand
							{
								OFFSET -26.402100 0.000000 0.000000 
								CHANNELS 3 Xrotation Yrotation Zrotation
								End Site
								{
									OFFSET -15.791900 -0.987000 0.000000 
								}
							}
						}
					}
				}
				JOINT LClavicle
				{
					OFFSET 23.687799 0.000000 -3.158400 
					CHANNELS 3 Xrotation Yrotation Zrotation
					JOINT LShoulder
					{
						OFFSET -15.594500 -3.948000 -0.987000 
						CHANNELS 3 Xrotation Yrotation Zrotation
						JOINT LForearm
						{
							OFFSET -31.337000 0.000000 -0.197400 
							CHANNELS 3 Xrotation Yrotation Zrotation
							JOINT LHand
							{
								OFFSET -26.402100 0.000000 0.000000 
								CHANNELS 3 Xrotation Yrotation Zrotation
								End Site
								{
									OFFSET -15.791900 -0.987000 0.000000 
								}
							}
						}
					}
				}
			}
		}
	}
	JOINT RThigh
	{
		OFFSET -8.882900 0.448100 0.000000 
		CHANNELS 3 Xrotation Yrotation Zrotation
		JOINT RShin
		{
			OFFSET 43.131599 0.000000 -0.493500 
			CHANNELS 3 Xrotation Yrotation Zrotation
			JOINT RFoot
			{
				OFFSET 0.000000 -44.725601 -0.404700 
				CHANNELS 3 Xrotation Yrotation Zrotation
				JOINT RToe
				{
					OFFSET 0.000000 -3.933200 12.195300 
					CHANNELS 3 Xrotation Yrotation Zrotation
					End Site
					{
						OFFSET 6.772500 0.000000 0.000000 
					}
				}
			}
		}
	}
	JOINT LThigh
	{
		OFFSET 8.882900 0.448100 0.000000 
		CHANNELS 3 Xrotation Yrotation Zrotation
		JOINT LShin
		{
			OFFSET 43.131599 0.000000 0.493500 
			CHANNELS 3 Xrotation Yrotation Zrotation
			JOINT LFoot
			{
				OFFSET 0.000000 -44.725601 0.404700 
				CHANNELS 3 Xrotation Yrotation Zrotation
				JOINT LToe
				{
					OFFSET 0.000000 -3.933200 -12.195300 
					CHANNELS 3 Xrotation Yrotation Zrotation
					End Site
					{
						OFFSET 6.772500 0.000000 0.000000 
					}
				}
			}
		}
	}
}
MOTION
Frames: 14
Frame Time: 0.016949
-7.817982 90.812592 -13.967675 14.158540 25.398130 -21.526331 -89.999992 -90.000000 0.000000 2.472360 0.692348 -1.768220 8.318783 2.003742 -6.000234 0.000000 0.000000 0.000000 0.000000 0.000000 0.000000 90.005791 -0.504787 -83.215759 177.029602 64.323402 -129.003998 3.917103 35.324650 -7.191704 0.000000 0.000000 0.000000 -89.995247 0.173401 -87.669884 -6.292418 -37.475368 44.248970 -2.787223 -27.339439 -6.602734 0.000000 0.000000 0.000000 -87.992699 70.942551 -12.281940 90.000740 -0.087693 90.000069 -2.167970 -11.967680 -4.432826 179.217499 90.000000 0.000000 -53.931580 52.542561 -70.670914 -89.605980 -38.536251 90.096863 4.584554 3.342858 -1.126138 190.857895 -90.000000 0.000000 
-7.960464 90.795784 -13.907050 14.182500 25.345610 -21.985220 -89.999992 -90.000000 0.000000 2.274478 0.560233 -1.687811 7.640703 1.601368 -5.704039 0.000000 0.000000 0.000000 0.000000 0.000000 0.000000 90.002296 -0.450631 -83.944733 176.889801 66.305473 -127.579803 4.451759 38.635132 -7.513453 0.000000 0.000000 0.000000 -89.995293 0.167376 -87.750763 -6.891197 -36.732029 44.640141 -2.619499 -26.037300 -6.527399 0.000000 0.000000 0.000000 -88.149078 70.430733 -11.830600 90.006798 -0.761254 90.000793 -1.634137 -12.083730 -4.466537 179.103897 90.000000 0.000000 -55.360020 52.924061 -69.446442 -89.606247 -38.516430 90.096703 4.718045 3.243455 -1.263228 190.500793 -90.000000 0.000000 
-8.034946 90.802170 -13.629625 13.381060 24.684771 -22.063480 -89.999992 -90.000000 0.000000 2.017201 0.460405 -1.590175 6.769756 1.312926 -5.357132 0.000000 0.000000 0.000000 0.000000 0.000000 0.000000 89.998428 -0.370939 -85.016403 179.654404 72.190811 -127.979103 5.832519 45.928570 -8.444307 0.000000 0.000000 0.000000 -89.995522 0.146023 -88.037514 -7.865674 -34.540340 45.530159 -2.576900 -25.701820 -6.508812 0.000000 0.000000 0.000000 -88.003853 69.895607 -11.275560 90.005928 -0.663538 90.000687 -1.117016 -11.043460 -4.040012 178.481705 90.000000 0.000000 -55.759079 52.979229 -68.243111 -89.601662 -38.851238 90.099228 5.074058 4.362462 -1.966667 190.296402 -90.000000 0.000000 
-8.064028 90.806862 -13.177601 11.856690 23.226910 -21.706190 -89.999992 -90.000000 0.000000 1.730740 0.430263 -1.467461 5.809612 1.258781 -4.937937 0.000000 0.000000 0.000000 0.000000 0.000000 0.000000 89.995850 -0.281405 -86.219467 -172.231903 80.620552 -133.046707 8.512347 56.036598 -10.534690 0.000000 0.000000 0.000000 -89.996017 0.116833 -88.429604 -9.319430 -30.922661 46.587330 -2.662690 -26.375469 -6.546474 0.000000 0.000000 0.000000 -87.699387 69.342659 -10.592780 89.998558 0.155964 89.999817 -0.955290 -9.331024 -3.351130 177.831696 90.000000 0.000000 -55.737720 52.990841 -66.393799 -89.598602 -39.073601 90.100929 5.897790 4.451493 -2.122443 190.076797 -90.000000 0.000000 
-7.982110 90.811447 -12.718477 10.241770 21.261320 -21.002609 -89.999992 -90.000000 0.000000 1.453097 0.515577 -1.320029 4.889160 1.585922 -4.449593 0.000000 0.000000 0.000000 0.000000 0.000000 0.000000 89.995140 -0.198652 -87.330994 -118.131798 88.190842 175.815201 13.913830 67.244507 -15.311510 0.000000 0.000000 0.000000 -89.996674 0.089257 -88.800056 -10.784780 -26.130510 47.927280 -2.808734 -27.504259 -6.612643 0.000000 0.000000 0.000000 -86.978020 69.217667 -9.786592 89.997513 0.271314 89.999718 -0.908623 -7.501204 -2.644879 177.719406 90.000000 0.000000 -57.259609 54.532631 -62.423611 -89.610573 -38.200539 90.094337 7.401336 1.040057 -0.447035 189.159500 -90.000000 0.000000 
-7.606592 90.885338 -12.251452 8.549281 19.012091 -19.735411 -89.999992 -90.000000 0.000000 1.215822 0.748694 -1.155036 4.112579 2.398185 -3.913876 0.000000 0.000000 0.000000 0.000000 0.000000 0.000000 89.995712 -0.133043 -88.212227 -4.087658 83.306847 64.309181 28.955200 78.118591 -29.742519 0.000000 0.000000 0.000000 -89.997208 0.070650 -89.050110 -12.322970 -20.778660 49.579399 -2.928035 -28.409420 -6.668573 0.000000 0.000000 0.000000 -85.589531 70.235764 -9.194392 90.000282 -0.038307 90.000023 -0.955057 -4.406714 -1.544334 177.988007 90.000000 0.000000 -61.291401 58.409000 -55.632889 -89.638344 -36.095051 90.079689 9.497904 -2.773382 1.722166 187.070602 -90.000000 0.000000 
-6.787674 91.084030 -11.703328 6.448765 16.424351 -17.646021 -89.999992 -90.000000 0.000000 1.032297 1.125604 -0.982312 3.519599 3.681322 -3.358852 0.000000 0.000000 0.000000 0.000000 0.000000 0.000000 89.996773 -0.085112 -88.856194 7.608061 75.861023 54.024792 94.169983 84.120117 -94.402573 0.000000 0.000000 0.000000 -89.997437 0.063724 -89.143181 -14.433010 -15.416330 51.471531 -2.978204 -28.785469 -6.692585 0.000000 0.000000 0.000000 -83.838463 72.049438 -9.099713 89.997437 0.276143 89.999710 -1.206543 -0.983961 -0.353132 178.292603 90.000000 0.000000 -67.076759 62.944580 -47.105068 -89.667038 -33.805080 90.065536 11.390350 -3.107897 1.995308 184.124603 -90.000000 0.000000 
-5.606256 91.360916 -11.138803 4.296278 13.814250 -15.025680 -89.999992 -90.000000 0.000000 0.895612 1.597692 -0.810164 3.080133 5.274854 -2.806574 0.000000 0.000000 0.000000 0.000000 0.000000 0.000000 89.997993 -0.047388 -89.363167 11.772820 67.400841 50.043331 147.836807 79.006432 -147.614502 0.000000 0.000000 0.000000 -89.997337 0.066716 -89.103073 -17.213831 -10.278420 53.478298 -3.040688 -29.250059 -6.722894 0.000000 0.000000 0.000000 -82.108017 73.938217 -9.387149 89.990318 1.067448 89.998993 -1.547651 0.158983 0.054637 178.458893 90.000000 0.000000 -71.282578 66.314903 -40.274029 -89.687897 -32.066639 90.055946 12.604940 -1.552609 0.994624 181.752899 -90.000000 0.000000 
-4.310237 91.638908 -10.665278 2.804889 11.912140 -12.469040 -89.999992 -90.000000 0.000000 0.786219 2.086375 -0.643152 2.722533 6.919136 -2.266167 0.000000 0.000000 0.000000 0.000000 0.000000 0.000000 89.999542 -0.009407 -89.873741 12.600780 57.474121 48.771351 160.944595 72.327148 -160.339096 0.000000 0.000000 0.000000 -89.997078 0.075504 -88.984993 -19.853800 -5.975374 55.276840 -3.178446 -30.259460 -6.791264 0.000000 0.000000 0.000000 -79.973083 76.161392 -10.251260 89.984718 1.689512 89.998497 -2.028676 -0.416933 -0.165606 178.479202 90.000000 0.000000 -71.280884 68.945503 -37.394859 -89.706451 -30.466591 90.047920 12.752690 -0.389416 0.271959 181.445602 -90.000000 0.000000 
-2.967620 91.898796 -10.287654 1.973291 11.024010 -10.144440 -89.999992 -90.000000 0.000000 0.682570 2.513380 -0.481934 2.371162 8.354999 -1.734066 0.000000 0.000000 0.000000 0.000000 0.000000 0.000000 90.001953 0.037693 -90.507233 12.404100 46.652229 48.463848 166.838196 65.311234 -165.845505 0.000000 0.000000 0.000000 -89.996773 0.086053 -88.843262 -21.699141 -3.258851 56.823490 -3.279892 -30.989691 -6.842942 0.000000 0.000000 0.000000 -76.797142 78.932678 -12.383990 89.980728 2.133752 89.998177 -2.591883 -0.766455 -0.302991 178.332306 90.000000 0.000000 -67.776642 71.594620 -37.870609 -89.730003 -28.363220 90.038483 11.659910 0.354188 -0.144930 182.708603 -90.000000 0.000000 
-1.568002 92.139496 -9.928530 1.351901 10.662120 -7.923711 -89.999992 -90.000000 0.000000 0.567473 2.828991 -0.324065 1.968262 9.417502 -1.198424 0.000000 0.000000 0.000000 0.000000 0.000000 0.000000 90.005836 0.098828 -91.330070 11.908370 36.031361 47.924141 170.564804 57.232979 -169.121796 0.000000 0.000000 0.000000 -89.996513 0.095741 -88.713097 -23.122089 -1.767679 58.667412 -3.275642 -30.959330 -6.840754 0.000000 0.000000 0.000000 -71.981056 81.774780 -16.690750 89.973030 2.992042 89.997650 -3.195704 -0.817085 -0.338757 177.977798 90.000000 0.000000 -62.194740 74.041031 -40.645481 -89.759712 -25.596470 90.027817 10.282710 0.802152 -0.370184 183.616806 -90.000000 0.000000 
-0.306684 92.340080 -9.522905 0.708410 10.123990 -5.907645 -89.999992 -90.000000 0.000000 0.429086 3.023638 -0.165500 1.476608 10.074640 -0.645204 0.000000 0.000000 0.000000 0.000000 0.000000 0.000000 90.011879 0.174279 -92.346649 10.912970 26.234020 46.762131 173.262405 47.711811 -171.268707 0.000000 0.000000 0.000000 -89.996330 0.103555 -88.608131 -24.664530 -0.537627 60.941051 -3.231135 -30.640110 -6.817965 0.000000 0.000000 0.000000 -64.124077 84.164543 -24.248831 89.963722 4.031163 89.997147 -3.907132 -1.115082 -0.455613 177.825394 90.000000 0.000000 -55.728409 76.024384 -44.452579 -89.790749 -22.579960 90.018242 9.422794 1.403226 -0.672699 183.533707 -90.000000 0.000000 
0.691334 92.503571 -9.104080 0.017512 9.084539 -4.262686 -89.999992 -90.000000 0.000000 0.261139 3.120756 -0.003426 0.878964 10.403620 -0.067293 0.000000 0.000000 0.000000 0.000000 0.000000 0.000000 90.020348 0.259696 -93.499588 9.022537 16.927389 44.948639 175.205704 37.619591 -172.590897 0.000000 0.000000 0.000000 -89.996193 0.109686 -88.525757 -26.185410 0.358052 63.184319 -3.096387 -29.660650 -6.750282 0.000000 0.000000 0.000000 -50.712528 85.923500 -37.224579 89.957199 4.759035 89.996918 -4.547613 -1.068391 -0.430862 178.021606 90.000000 0.000000 -49.049610 77.635887 -48.631031 -89.817307 -19.902010 90.011360 8.816167 2.773408 -1.335457 183.153000 -90.000000 0.000000 
1.579152 92.661865 -8.800056 -0.536175 7.745823 -2.870458 -89.999992 -90.000000 0.000000 0.065595 3.159357 0.160366 0.185896 10.533120 0.525255 0.000000 0.000000 0.000000 0.000000 0.000000 0.000000 90.030800 0.347051 -94.681374 5.483050 7.750259 42.413368 176.324097 30.157040 -173.215805 0.000000 0.000000 0.000000 -89.996078 0.114863 -88.456207 -27.227909 0.074009 65.225990 -2.749448 -27.048750 -6.585467 0.000000 0.000000 0.000000 -25.120350 87.083527 -62.718590 89.948959 5.677619 89.996727 -5.005216 -0.208993 -0.064154 178.040100 90.000000 0.000000 -42.410912 79.176697 -53.099072 -89.840988 -17.449270 90.006287 8.097958 4.133471 -1.959156 182.744003 -90.000000 0.000000 
